# Native macOS ScreenCaptureKit recording
# Format: n:<frame_number> pts_time:<seconds> perf_counter_ms:<milliseconds>
n:     0 pts_time:0.000000 perf_counter_ms:26072872.134
n:     1 pts_time:0.016667 perf_counter_ms:26072888.801
n:     2 pts_time:0.066666 perf_counter_ms:26072938.801
n:     3 pts_time:0.083333 perf_counter_ms:26072955.467
n:     4 pts_time:0.133333 perf_counter_ms:26073005.467
n:     5 pts_time:0.166666 perf_counter_ms:26073038.800
n:     6 pts_time:0.199999 perf_counter_ms:26073072.133
n:     7 pts_time:0.233332 perf_counter_ms:26073105.467
n:     8 pts_time:0.266666 perf_counter_ms:26073138.800
n:     9 pts_time:0.316665 perf_counter_ms:26073188.800
n:    10 pts_time:0.349999 perf_counter_ms:26073222.133
n:    11 pts_time:0.383332 perf_counter_ms:26073255.466
n:    12 pts_time:0.416665 perf_counter_ms:26073288.799
n:    13 pts_time:0.449998 perf_counter_ms:26073322.133
n:    14 pts_time:0.483331 perf_counter_ms:26073355.466
n:    15 pts_time:0.516665 perf_counter_ms:26073388.799
n:    16 pts_time:0.549998 perf_counter_ms:26073422.132
n:    17 pts_time:0.583331 perf_counter_ms:26073455.465
n:    18 pts_time:0.616664 perf_counter_ms:26073488.799
n:    19 pts_time:0.649998 perf_counter_ms:26073522.132
n:    20 pts_time:0.683331 perf_counter_ms:26073555.465
n:    21 pts_time:0.716664 perf_counter_ms:26073588.798
n:    22 pts_time:0.749997 perf_counter_ms:26073622.132
n:    23 pts_time:0.783330 perf_counter_ms:26073655.465
n:    24 pts_time:0.816664 perf_counter_ms:26073688.798
n:    25 pts_time:0.866663 perf_counter_ms:26073738.798
n:    26 pts_time:0.899997 perf_counter_ms:26073772.131
n:    27 pts_time:0.933330 perf_counter_ms:26073805.464
n:    28 pts_time:0.966663 perf_counter_ms:26073838.797
n:    29 pts_time:0.999996 perf_counter_ms:26073872.131
n:    30 pts_time:1.033329 perf_counter_ms:26073905.464
n:    31 pts_time:1.066663 perf_counter_ms:26073938.797
n:    32 pts_time:1.099996 perf_counter_ms:26073972.130
n:    33 pts_time:1.133329 perf_counter_ms:26074005.463
n:    34 pts_time:1.166662 perf_counter_ms:26074038.797
n:    35 pts_time:1.199996 perf_counter_ms:26074072.130
n:    36 pts_time:1.233329 perf_counter_ms:26074105.463
n:    37 pts_time:1.266662 perf_counter_ms:26074138.796
n:    38 pts_time:1.299995 perf_counter_ms:26074172.129
n:    39 pts_time:1.333328 perf_counter_ms:26074205.463
n:    40 pts_time:1.366662 perf_counter_ms:26074238.796
n:    41 pts_time:1.399995 perf_counter_ms:26074272.129
n:    42 pts_time:1.433328 perf_counter_ms:26074305.462
n:    43 pts_time:1.466661 perf_counter_ms:26074338.795
n:    44 pts_time:1.499994 perf_counter_ms:26074372.129
n:    45 pts_time:1.533327 perf_counter_ms:26074405.462
n:    46 pts_time:1.566661 perf_counter_ms:26074438.795
n:    47 pts_time:1.599994 perf_counter_ms:26074472.128
n:    48 pts_time:1.633327 perf_counter_ms:26074505.461
n:    49 pts_time:1.649994 perf_counter_ms:26074522.128
n:    50 pts_time:1.699993 perf_counter_ms:26074572.128
n:    51 pts_time:1.733327 perf_counter_ms:26074605.461
n:    52 pts_time:1.799993 perf_counter_ms:26074672.127
n:    53 pts_time:1.833326 perf_counter_ms:26074705.460
n:    54 pts_time:1.866659 perf_counter_ms:26074738.794
n:    55 pts_time:1.899993 perf_counter_ms:26074772.127
n:    56 pts_time:1.933326 perf_counter_ms:26074805.460
n:    57 pts_time:1.966659 perf_counter_ms:26074838.793
n:    58 pts_time:1.999992 perf_counter_ms:26074872.126
n:    59 pts_time:2.033325 perf_counter_ms:26074905.460
n:    60 pts_time:2.066659 perf_counter_ms:26074938.793
n:    61 pts_time:2.099992 perf_counter_ms:26074972.126
n:    62 pts_time:2.133325 perf_counter_ms:26075005.459
n:    63 pts_time:2.166658 perf_counter_ms:26075038.792
n:    64 pts_time:2.216658 perf_counter_ms:26075088.792
n:    65 pts_time:2.249991 perf_counter_ms:26075122.125
n:    66 pts_time:2.283324 perf_counter_ms:26075155.458
n:    67 pts_time:2.316657 perf_counter_ms:26075188.792
n:    68 pts_time:2.349991 perf_counter_ms:26075222.125
n:    69 pts_time:2.383324 perf_counter_ms:26075255.458
n:    70 pts_time:2.416657 perf_counter_ms:26075288.791
n:    71 pts_time:2.449990 perf_counter_ms:26075322.124
n:    72 pts_time:2.483323 perf_counter_ms:26075355.458
n:    73 pts_time:2.516657 perf_counter_ms:26075388.791
n:    74 pts_time:2.549990 perf_counter_ms:26075422.124
n:    75 pts_time:2.583323 perf_counter_ms:26075455.457
n:    76 pts_time:2.616656 perf_counter_ms:26075488.790
n:    77 pts_time:2.649989 perf_counter_ms:26075522.124
n:    78 pts_time:2.683322 perf_counter_ms:26075555.457
n:    79 pts_time:2.716656 perf_counter_ms:26075588.790
n:    80 pts_time:2.749989 perf_counter_ms:26075622.123
n:    81 pts_time:2.766655 perf_counter_ms:26075638.790
n:    82 pts_time:2.799989 perf_counter_ms:26075672.124
n:    83 pts_time:2.833322 perf_counter_ms:26075705.457
n:    84 pts_time:2.883322 perf_counter_ms:26075755.456
n:    85 pts_time:2.916655 perf_counter_ms:26075788.789
n:    86 pts_time:2.949988 perf_counter_ms:26075822.122
n:    87 pts_time:2.983321 perf_counter_ms:26075855.455
n:    88 pts_time:3.016654 perf_counter_ms:26075888.789
n:    89 pts_time:3.049988 perf_counter_ms:26075922.122
n:    90 pts_time:3.099987 perf_counter_ms:26075972.122
n:    91 pts_time:3.133321 perf_counter_ms:26076005.455
n:    92 pts_time:3.166654 perf_counter_ms:26076038.788
n:    93 pts_time:3.199987 perf_counter_ms:26076072.121
n:    94 pts_time:3.233320 perf_counter_ms:26076105.454
n:    95 pts_time:3.266653 perf_counter_ms:26076138.787
n:    96 pts_time:3.299986 perf_counter_ms:26076172.121
n:    97 pts_time:3.333320 perf_counter_ms:26076205.454
n:    98 pts_time:3.366653 perf_counter_ms:26076238.787
n:    99 pts_time:3.399986 perf_counter_ms:26076272.120
n:   100 pts_time:3.433319 perf_counter_ms:26076305.453
n:   101 pts_time:3.466652 perf_counter_ms:26076338.787
n:   102 pts_time:3.499985 perf_counter_ms:26076372.120
n:   103 pts_time:3.533319 perf_counter_ms:26076405.453
n:   104 pts_time:3.566652 perf_counter_ms:26076438.786
n:   105 pts_time:3.599985 perf_counter_ms:26076472.119
n:   106 pts_time:3.633318 perf_counter_ms:26076505.452
n:   107 pts_time:3.666651 perf_counter_ms:26076538.786
n:   108 pts_time:3.699985 perf_counter_ms:26076572.119
n:   109 pts_time:3.733318 perf_counter_ms:26076605.452
n:   110 pts_time:3.766651 perf_counter_ms:26076638.785
n:   111 pts_time:3.799984 perf_counter_ms:26076672.118
n:   112 pts_time:3.833317 perf_counter_ms:26076705.452
n:   113 pts_time:3.866650 perf_counter_ms:26076738.785
n:   114 pts_time:3.899984 perf_counter_ms:26076772.118
n:   115 pts_time:3.933317 perf_counter_ms:26076805.451
n:   116 pts_time:3.966650 perf_counter_ms:26076838.784
n:   117 pts_time:3.983317 perf_counter_ms:26076855.451
n:   118 pts_time:4.033316 perf_counter_ms:26076905.451
n:   119 pts_time:4.066650 perf_counter_ms:26076938.784
n:   120 pts_time:4.099983 perf_counter_ms:26076972.118
n:   121 pts_time:4.133316 perf_counter_ms:26077005.451
n:   122 pts_time:4.166649 perf_counter_ms:26077038.783
n:   123 pts_time:4.199983 perf_counter_ms:26077072.117
n:   124 pts_time:4.233316 perf_counter_ms:26077105.450
n:   125 pts_time:4.266649 perf_counter_ms:26077138.783
n:   126 pts_time:4.299982 perf_counter_ms:26077172.117
n:   127 pts_time:4.333316 perf_counter_ms:26077205.450
n:   128 pts_time:4.366649 perf_counter_ms:26077238.783
n:   129 pts_time:4.399982 perf_counter_ms:26077272.116
n:   130 pts_time:4.433315 perf_counter_ms:26077305.449
n:   131 pts_time:4.466648 perf_counter_ms:26077338.782
n:   132 pts_time:4.499981 perf_counter_ms:26077372.116
n:   133 pts_time:4.533315 perf_counter_ms:26077405.449
n:   134 pts_time:4.566648 perf_counter_ms:26077438.782
n:   135 pts_time:4.599981 perf_counter_ms:26077472.115
n:   136 pts_time:4.633314 perf_counter_ms:26077505.448
n:   137 pts_time:4.666647 perf_counter_ms:26077538.781
n:   138 pts_time:4.699980 perf_counter_ms:26077572.115
n:   139 pts_time:4.733314 perf_counter_ms:26077605.448
n:   140 pts_time:4.766647 perf_counter_ms:26077638.781
n:   141 pts_time:4.799979 perf_counter_ms:26077672.114
n:   142 pts_time:4.866646 perf_counter_ms:26077738.780
n:   143 pts_time:4.883313 perf_counter_ms:26077755.447
n:   144 pts_time:4.916646 perf_counter_ms:26077788.781
n:   145 pts_time:4.949979 perf_counter_ms:26077822.114
n:   146 pts_time:4.983313 perf_counter_ms:26077855.447
n:   147 pts_time:5.016646 perf_counter_ms:26077888.780
n:   148 pts_time:5.049979 perf_counter_ms:26077922.113
n:   149 pts_time:5.083312 perf_counter_ms:26077955.446
n:   150 pts_time:5.116645 perf_counter_ms:26077988.780
n:   151 pts_time:5.149978 perf_counter_ms:26078022.113
n:   152 pts_time:5.183312 perf_counter_ms:26078055.446
n:   153 pts_time:5.216645 perf_counter_ms:26078088.779
n:   154 pts_time:5.249978 perf_counter_ms:26078122.112
n:   155 pts_time:5.283311 perf_counter_ms:26078155.445
n:   156 pts_time:5.316644 perf_counter_ms:26078188.779
n:   157 pts_time:5.349977 perf_counter_ms:26078222.112
n:   158 pts_time:5.383311 perf_counter_ms:26078255.445
n:   159 pts_time:5.416644 perf_counter_ms:26078288.778
n:   160 pts_time:5.449976 perf_counter_ms:26078322.111
n:   161 pts_time:5.499976 perf_counter_ms:26078372.111
n:   162 pts_time:5.533310 perf_counter_ms:26078405.444
n:   163 pts_time:5.566643 perf_counter_ms:26078438.777
n:   164 pts_time:5.599976 perf_counter_ms:26078472.110
n:   165 pts_time:5.633309 perf_counter_ms:26078505.443
n:   166 pts_time:5.666642 perf_counter_ms:26078538.777
n:   167 pts_time:5.699976 perf_counter_ms:26078572.110
n:   168 pts_time:5.733309 perf_counter_ms:26078605.443
n:   169 pts_time:5.766642 perf_counter_ms:26078638.776
n:   170 pts_time:5.799975 perf_counter_ms:26078672.109
n:   171 pts_time:5.833308 perf_counter_ms:26078705.443
n:   172 pts_time:5.866641 perf_counter_ms:26078738.776
n:   173 pts_time:5.883308 perf_counter_ms:26078755.442
n:   174 pts_time:5.916641 perf_counter_ms:26078788.775
n:   175 pts_time:5.966642 perf_counter_ms:26078838.776
n:   176 pts_time:5.999975 perf_counter_ms:26078872.109
n:   177 pts_time:6.049974 perf_counter_ms:26078922.108
n:   178 pts_time:6.083307 perf_counter_ms:26078955.441
n:   179 pts_time:6.116640 perf_counter_ms:26078988.775
n:   180 pts_time:6.149974 perf_counter_ms:26079022.108
n:   181 pts_time:6.183307 perf_counter_ms:26079055.441
n:   182 pts_time:6.216640 perf_counter_ms:26079088.774
n:   183 pts_time:6.249973 perf_counter_ms:26079122.107
n:   184 pts_time:6.283306 perf_counter_ms:26079155.441
n:   185 pts_time:6.316640 perf_counter_ms:26079188.774
n:   186 pts_time:6.349973 perf_counter_ms:26079222.107
n:   187 pts_time:6.383306 perf_counter_ms:26079255.440
n:   188 pts_time:6.433306 perf_counter_ms:26079305.440
n:   189 pts_time:6.449972 perf_counter_ms:26079322.107
n:   190 pts_time:6.483306 perf_counter_ms:26079355.440
n:   191 pts_time:6.516639 perf_counter_ms:26079388.774
n:   192 pts_time:6.549972 perf_counter_ms:26079422.107
n:   193 pts_time:6.583306 perf_counter_ms:26079455.440
n:   194 pts_time:6.616639 perf_counter_ms:26079488.773
n:   195 pts_time:6.666638 perf_counter_ms:26079538.772
n:   196 pts_time:6.699971 perf_counter_ms:26079572.106
n:   197 pts_time:6.733304 perf_counter_ms:26079605.439
n:   198 pts_time:6.766638 perf_counter_ms:26079638.772
n:   199 pts_time:6.799971 perf_counter_ms:26079672.105
n:   200 pts_time:6.833304 perf_counter_ms:26079705.438
n:   201 pts_time:6.866637 perf_counter_ms:26079738.771
n:   202 pts_time:6.899970 perf_counter_ms:26079772.105
n:   203 pts_time:6.933304 perf_counter_ms:26079805.438
n:   204 pts_time:6.966637 perf_counter_ms:26079838.771
n:   205 pts_time:6.999970 perf_counter_ms:26079872.104
n:   206 pts_time:7.033303 perf_counter_ms:26079905.437
n:   207 pts_time:7.066636 perf_counter_ms:26079938.771
n:   208 pts_time:7.116636 perf_counter_ms:26079988.770
n:   209 pts_time:7.149969 perf_counter_ms:26080022.104
n:   210 pts_time:7.183303 perf_counter_ms:26080055.437
n:   211 pts_time:7.216636 perf_counter_ms:26080088.770
n:   212 pts_time:7.249969 perf_counter_ms:26080122.103
n:   213 pts_time:7.283302 perf_counter_ms:26080155.436
n:   214 pts_time:7.316635 perf_counter_ms:26080188.770
n:   215 pts_time:7.349969 perf_counter_ms:26080222.103
n:   216 pts_time:7.383302 perf_counter_ms:26080255.436
n:   217 pts_time:7.416635 perf_counter_ms:26080288.769
n:   218 pts_time:7.449968 perf_counter_ms:26080322.102
n:   219 pts_time:7.483301 perf_counter_ms:26080355.436
n:   220 pts_time:7.516635 perf_counter_ms:26080388.769
n:   221 pts_time:7.549968 perf_counter_ms:26080422.102
n:   222 pts_time:7.583301 perf_counter_ms:26080455.435
n:   223 pts_time:7.616634 perf_counter_ms:26080488.768
n:   224 pts_time:7.649967 perf_counter_ms:26080522.102
n:   225 pts_time:7.683301 perf_counter_ms:26080555.435
n:   226 pts_time:7.716634 perf_counter_ms:26080588.768
n:   227 pts_time:7.749967 perf_counter_ms:26080622.101
n:   228 pts_time:7.783300 perf_counter_ms:26080655.434
n:   229 pts_time:7.816633 perf_counter_ms:26080688.768
n:   230 pts_time:7.866633 perf_counter_ms:26080738.767
n:   231 pts_time:7.899966 perf_counter_ms:26080772.101
n:   232 pts_time:7.933300 perf_counter_ms:26080805.434
n:   233 pts_time:7.966633 perf_counter_ms:26080838.767
n:   234 pts_time:7.999966 perf_counter_ms:26080872.100
n:   235 pts_time:8.033299 perf_counter_ms:26080905.433
n:   236 pts_time:8.066632 perf_counter_ms:26080938.767
n:   237 pts_time:8.099965 perf_counter_ms:26080972.100
n:   238 pts_time:8.133299 perf_counter_ms:26081005.433
n:   239 pts_time:8.166632 perf_counter_ms:26081038.766
n:   240 pts_time:8.199965 perf_counter_ms:26081072.099
n:   241 pts_time:8.233298 perf_counter_ms:26081105.433
n:   242 pts_time:8.266632 perf_counter_ms:26081138.766
n:   243 pts_time:8.299965 perf_counter_ms:26081172.099
n:   244 pts_time:8.333298 perf_counter_ms:26081205.432
n:   245 pts_time:8.366631 perf_counter_ms:26081238.765
n:   246 pts_time:8.399964 perf_counter_ms:26081272.099
n:   247 pts_time:8.433298 perf_counter_ms:26081305.432
n:   248 pts_time:8.466631 perf_counter_ms:26081338.765
n:   249 pts_time:8.499964 perf_counter_ms:26081372.098
n:   250 pts_time:8.533297 perf_counter_ms:26081405.431
n:   251 pts_time:8.566630 perf_counter_ms:26081438.765
n:   252 pts_time:8.599964 perf_counter_ms:26081472.098
n:   253 pts_time:8.633297 perf_counter_ms:26081505.431
n:   254 pts_time:8.666630 perf_counter_ms:26081538.764
n:   255 pts_time:8.716630 perf_counter_ms:26081588.764
n:   256 pts_time:8.749963 perf_counter_ms:26081622.097
n:   257 pts_time:8.783296 perf_counter_ms:26081655.430
n:   258 pts_time:8.816629 perf_counter_ms:26081688.764
n:   259 pts_time:8.849962 perf_counter_ms:26081722.097
n:   260 pts_time:8.883296 perf_counter_ms:26081755.430
n:   261 pts_time:8.916629 perf_counter_ms:26081788.763
n:   262 pts_time:8.949962 perf_counter_ms:26081822.096
n:   263 pts_time:8.983295 perf_counter_ms:26081855.430
n:   264 pts_time:9.016628 perf_counter_ms:26081888.763
n:   265 pts_time:9.049962 perf_counter_ms:26081922.096
n:   266 pts_time:9.083295 perf_counter_ms:26081955.429
n:   267 pts_time:9.116628 perf_counter_ms:26081988.762
n:   268 pts_time:9.149961 perf_counter_ms:26082022.096
n:   269 pts_time:9.183294 perf_counter_ms:26082055.429
n:   270 pts_time:9.216628 perf_counter_ms:26082088.762
n:   271 pts_time:9.249961 perf_counter_ms:26082122.095
n:   272 pts_time:9.283294 perf_counter_ms:26082155.428
n:   273 pts_time:9.316627 perf_counter_ms:26082188.762
n:   274 pts_time:9.366627 perf_counter_ms:26082238.761
n:   275 pts_time:9.399960 perf_counter_ms:26082272.095
n:   276 pts_time:9.433293 perf_counter_ms:26082305.428
n:   277 pts_time:9.466627 perf_counter_ms:26082338.761
n:   278 pts_time:9.499960 perf_counter_ms:26082372.094
n:   279 pts_time:9.533293 perf_counter_ms:26082405.427
n:   280 pts_time:9.566626 perf_counter_ms:26082438.761
n:   281 pts_time:9.599959 perf_counter_ms:26082472.094
n:   282 pts_time:9.633293 perf_counter_ms:26082505.427
n:   283 pts_time:9.666626 perf_counter_ms:26082538.760
n:   284 pts_time:9.699959 perf_counter_ms:26082572.093
n:   285 pts_time:9.733292 perf_counter_ms:26082605.427
n:   286 pts_time:9.766626 perf_counter_ms:26082638.760
n:   287 pts_time:9.799959 perf_counter_ms:26082672.093
n:   288 pts_time:9.833292 perf_counter_ms:26082705.426
n:   289 pts_time:9.866625 perf_counter_ms:26082738.759
n:   290 pts_time:9.899958 perf_counter_ms:26082772.093
n:   291 pts_time:9.933292 perf_counter_ms:26082805.426
n:   292 pts_time:9.966625 perf_counter_ms:26082838.759
n:   293 pts_time:9.999958 perf_counter_ms:26082872.092
n:   294 pts_time:10.033291 perf_counter_ms:26082905.426
n:   295 pts_time:10.083291 perf_counter_ms:26082955.425
n:   296 pts_time:10.116624 perf_counter_ms:26082988.759
n:   297 pts_time:10.149957 perf_counter_ms:26083022.092
n:   298 pts_time:10.183291 perf_counter_ms:26083055.425
n:   299 pts_time:10.216624 perf_counter_ms:26083088.758
n:   300 pts_time:10.249957 perf_counter_ms:26083122.091
n:   301 pts_time:10.283290 perf_counter_ms:26083155.425
n:   302 pts_time:10.316623 perf_counter_ms:26083188.758
n:   303 pts_time:10.349957 perf_counter_ms:26083222.091
n:   304 pts_time:10.383290 perf_counter_ms:26083255.424
n:   305 pts_time:10.416623 perf_counter_ms:26083288.757
n:   306 pts_time:10.449956 perf_counter_ms:26083322.091
n:   307 pts_time:10.483289 perf_counter_ms:26083355.424
n:   308 pts_time:10.516623 perf_counter_ms:26083388.757
n:   309 pts_time:10.549956 perf_counter_ms:26083422.090
n:   310 pts_time:10.583289 perf_counter_ms:26083455.423
n:   311 pts_time:10.616622 perf_counter_ms:26083488.757
n:   312 pts_time:10.649955 perf_counter_ms:26083522.090
n:   313 pts_time:10.683289 perf_counter_ms:26083555.423
n:   314 pts_time:10.716622 perf_counter_ms:26083588.756
n:   315 pts_time:10.749955 perf_counter_ms:26083622.089
n:   316 pts_time:10.783288 perf_counter_ms:26083655.423
n:   317 pts_time:10.816621 perf_counter_ms:26083688.756
n:   318 pts_time:10.849955 perf_counter_ms:26083722.089
n:   319 pts_time:10.899954 perf_counter_ms:26083772.089
n:   320 pts_time:10.933288 perf_counter_ms:26083805.422
n:   321 pts_time:10.966621 perf_counter_ms:26083838.755
n:   322 pts_time:10.999954 perf_counter_ms:26083872.088
n:   323 pts_time:11.033287 perf_counter_ms:26083905.421
n:   324 pts_time:11.066620 perf_counter_ms:26083938.755
n:   325 pts_time:11.099953 perf_counter_ms:26083972.088
n:   326 pts_time:11.133287 perf_counter_ms:26084005.421
n:   327 pts_time:11.166620 perf_counter_ms:26084038.754
n:   328 pts_time:11.199953 perf_counter_ms:26084072.087
n:   329 pts_time:11.233286 perf_counter_ms:26084105.420
n:   330 pts_time:11.266619 perf_counter_ms:26084138.754
n:   331 pts_time:11.299953 perf_counter_ms:26084172.087
n:   332 pts_time:11.333286 perf_counter_ms:26084205.420
n:   333 pts_time:11.366619 perf_counter_ms:26084238.753
n:   334 pts_time:11.399952 perf_counter_ms:26084272.086
n:   335 pts_time:11.433285 perf_counter_ms:26084305.419
n:   336 pts_time:11.466618 perf_counter_ms:26084338.753
n:   337 pts_time:11.499951 perf_counter_ms:26084372.086
n:   338 pts_time:11.533285 perf_counter_ms:26084405.419
n:   339 pts_time:11.566618 perf_counter_ms:26084438.752
n:   340 pts_time:11.599951 perf_counter_ms:26084472.085
n:   341 pts_time:11.633284 perf_counter_ms:26084505.418
n:   342 pts_time:11.666617 perf_counter_ms:26084538.752
n:   343 pts_time:11.699950 perf_counter_ms:26084572.085
n:   344 pts_time:11.733284 perf_counter_ms:26084605.418
n:   345 pts_time:11.766617 perf_counter_ms:26084638.751
n:   346 pts_time:11.816616 perf_counter_ms:26084688.751
n:   347 pts_time:11.849950 perf_counter_ms:26084722.084
n:   348 pts_time:11.883283 perf_counter_ms:26084755.417
n:   349 pts_time:11.916616 perf_counter_ms:26084788.750
n:   350 pts_time:11.949949 perf_counter_ms:26084822.083
n:   351 pts_time:11.983282 perf_counter_ms:26084855.416
n:   352 pts_time:12.016615 perf_counter_ms:26084888.750
n:   353 pts_time:12.049948 perf_counter_ms:26084922.083
n:   354 pts_time:12.083282 perf_counter_ms:26084955.416
n:   355 pts_time:12.116615 perf_counter_ms:26084988.749
n:   356 pts_time:12.149948 perf_counter_ms:26085022.082
n:   357 pts_time:12.183281 perf_counter_ms:26085055.415
n:   358 pts_time:12.216614 perf_counter_ms:26085088.748
n:   359 pts_time:12.249947 perf_counter_ms:26085122.081
n:   360 pts_time:12.299947 perf_counter_ms:26085172.081
n:   361 pts_time:12.333280 perf_counter_ms:26085205.414
n:   362 pts_time:12.366613 perf_counter_ms:26085238.747
n:   363 pts_time:12.416613 perf_counter_ms:26085288.747
n:   364 pts_time:12.449946 perf_counter_ms:26085322.080
n:   365 pts_time:12.483279 perf_counter_ms:26085355.413
n:   366 pts_time:12.516612 perf_counter_ms:26085388.746
n:   367 pts_time:12.549945 perf_counter_ms:26085422.079
n:   368 pts_time:12.583278 perf_counter_ms:26085455.413
n:   369 pts_time:12.616611 perf_counter_ms:26085488.746
n:   370 pts_time:12.649945 perf_counter_ms:26085522.079
n:   371 pts_time:12.683278 perf_counter_ms:26085555.412
n:   372 pts_time:12.716611 perf_counter_ms:26085588.745
n:   373 pts_time:12.749944 perf_counter_ms:26085622.078
n:   374 pts_time:12.783277 perf_counter_ms:26085655.411
n:   375 pts_time:12.816610 perf_counter_ms:26085688.744
n:   376 pts_time:12.849943 perf_counter_ms:26085722.078
n:   377 pts_time:12.883276 perf_counter_ms:26085755.411
n:   378 pts_time:12.916610 perf_counter_ms:26085788.744
n:   379 pts_time:12.949943 perf_counter_ms:26085822.077
n:   380 pts_time:12.999942 perf_counter_ms:26085872.077
n:   381 pts_time:13.033275 perf_counter_ms:26085905.410
n:   382 pts_time:13.066608 perf_counter_ms:26085938.743
n:   383 pts_time:13.099942 perf_counter_ms:26085972.076
n:   384 pts_time:13.133275 perf_counter_ms:26086005.409
n:   385 pts_time:13.166608 perf_counter_ms:26086038.742
n:   386 pts_time:13.199941 perf_counter_ms:26086072.075
n:   387 pts_time:13.233274 perf_counter_ms:26086105.408
n:   388 pts_time:13.266607 perf_counter_ms:26086138.741
n:   389 pts_time:13.299940 perf_counter_ms:26086172.075
n:   390 pts_time:13.333273 perf_counter_ms:26086205.408
n:   391 pts_time:13.366607 perf_counter_ms:26086238.741
n:   392 pts_time:13.399940 perf_counter_ms:26086272.074
n:   393 pts_time:13.433273 perf_counter_ms:26086305.407
n:   394 pts_time:13.466606 perf_counter_ms:26086338.740
n:   395 pts_time:13.483273 perf_counter_ms:26086355.407
n:   396 pts_time:13.516606 perf_counter_ms:26086388.740
n:   397 pts_time:13.549939 perf_counter_ms:26086422.074
n:   398 pts_time:13.583272 perf_counter_ms:26086455.407
n:   399 pts_time:13.616605 perf_counter_ms:26086488.740
n:   400 pts_time:13.649939 perf_counter_ms:26086522.073
n:   401 pts_time:13.699938 perf_counter_ms:26086572.073
n:   402 pts_time:13.749938 perf_counter_ms:26086622.072
n:   403 pts_time:13.783271 perf_counter_ms:26086655.405
n:   404 pts_time:13.816604 perf_counter_ms:26086688.738
n:   405 pts_time:13.849937 perf_counter_ms:26086722.071
n:   406 pts_time:13.883270 perf_counter_ms:26086755.404
n:   407 pts_time:13.916603 perf_counter_ms:26086788.737
n:   408 pts_time:13.949936 perf_counter_ms:26086822.070
n:   409 pts_time:13.999936 perf_counter_ms:26086872.070
n:   410 pts_time:14.033269 perf_counter_ms:26086905.403
n:   411 pts_time:14.066602 perf_counter_ms:26086938.736
n:   412 pts_time:14.099935 perf_counter_ms:26086972.069
n:   413 pts_time:14.133268 perf_counter_ms:26087005.403
n:   414 pts_time:14.166601 perf_counter_ms:26087038.736
n:   415 pts_time:14.199935 perf_counter_ms:26087072.069
n:   416 pts_time:14.233268 perf_counter_ms:26087105.402
n:   417 pts_time:14.266601 perf_counter_ms:26087138.735
n:   418 pts_time:14.299934 perf_counter_ms:26087172.068
n:   419 pts_time:14.333267 perf_counter_ms:26087205.401
n:   420 pts_time:14.366600 perf_counter_ms:26087238.735
n:   421 pts_time:14.399933 perf_counter_ms:26087272.068
n:   422 pts_time:14.433267 perf_counter_ms:26087305.401
n:   423 pts_time:14.466600 perf_counter_ms:26087338.734
n:   424 pts_time:14.499933 perf_counter_ms:26087372.067
n:   425 pts_time:14.533266 perf_counter_ms:26087405.400
n:   426 pts_time:14.566599 perf_counter_ms:26087438.733
n:   427 pts_time:14.599932 perf_counter_ms:26087472.067
n:   428 pts_time:14.633265 perf_counter_ms:26087505.400
n:   429 pts_time:14.683265 perf_counter_ms:26087555.399
n:   430 pts_time:14.716598 perf_counter_ms:26087588.732
n:   431 pts_time:14.749931 perf_counter_ms:26087622.066
n:   432 pts_time:14.783264 perf_counter_ms:26087655.399
n:   433 pts_time:14.816598 perf_counter_ms:26087688.732
n:   434 pts_time:14.849931 perf_counter_ms:26087722.065
n:   435 pts_time:14.883264 perf_counter_ms:26087755.398
n:   436 pts_time:14.916597 perf_counter_ms:26087788.731
n:   437 pts_time:14.949930 perf_counter_ms:26087822.064
n:   438 pts_time:14.983263 perf_counter_ms:26087855.398
n:   439 pts_time:15.016596 perf_counter_ms:26087888.731
n:   440 pts_time:15.049930 perf_counter_ms:26087922.064
n:   441 pts_time:15.083263 perf_counter_ms:26087955.397
n:   442 pts_time:15.116596 perf_counter_ms:26087988.730
n:   443 pts_time:15.149929 perf_counter_ms:26088022.063
n:   444 pts_time:15.183262 perf_counter_ms:26088055.396
n:   445 pts_time:15.216595 perf_counter_ms:26088088.729
n:   446 pts_time:15.249928 perf_counter_ms:26088122.063
n:   447 pts_time:15.283262 perf_counter_ms:26088155.396
n:   448 pts_time:15.316595 perf_counter_ms:26088188.729
n:   449 pts_time:15.349928 perf_counter_ms:26088222.062
n:   450 pts_time:15.383261 perf_counter_ms:26088255.395
n:   451 pts_time:15.416594 perf_counter_ms:26088288.728
n:   452 pts_time:15.449927 perf_counter_ms:26088322.062
n:   453 pts_time:15.499927 perf_counter_ms:26088372.061
n:   454 pts_time:15.533260 perf_counter_ms:26088405.394
n:   455 pts_time:15.566593 perf_counter_ms:26088438.727
n:   456 pts_time:15.599926 perf_counter_ms:26088472.061
n:   457 pts_time:15.633260 perf_counter_ms:26088505.394
n:   458 pts_time:15.666593 perf_counter_ms:26088538.727
n:   459 pts_time:15.699926 perf_counter_ms:26088572.060
n:   460 pts_time:15.733259 perf_counter_ms:26088605.393
n:   461 pts_time:15.766592 perf_counter_ms:26088638.726
n:   462 pts_time:15.799925 perf_counter_ms:26088672.060
n:   463 pts_time:15.833258 perf_counter_ms:26088705.393
n:   464 pts_time:15.866592 perf_counter_ms:26088738.726
n:   465 pts_time:15.899925 perf_counter_ms:26088772.059
n:   466 pts_time:15.933258 perf_counter_ms:26088805.392
n:   467 pts_time:15.966591 perf_counter_ms:26088838.725
n:   468 pts_time:16.016591 perf_counter_ms:26088888.725
n:   469 pts_time:16.049924 perf_counter_ms:26088922.058
n:   470 pts_time:16.083257 perf_counter_ms:26088955.391
n:   471 pts_time:16.116590 perf_counter_ms:26088988.724
n:   472 pts_time:16.149923 perf_counter_ms:26089022.058
n:   473 pts_time:16.183257 perf_counter_ms:26089055.391
n:   474 pts_time:16.216590 perf_counter_ms:26089088.724
n:   475 pts_time:16.249923 perf_counter_ms:26089122.057
n:   476 pts_time:16.283256 perf_counter_ms:26089155.390
n:   477 pts_time:16.316589 perf_counter_ms:26089188.723
n:   478 pts_time:16.349922 perf_counter_ms:26089222.056
n:   479 pts_time:16.383255 perf_counter_ms:26089255.390
n:   480 pts_time:16.416589 perf_counter_ms:26089288.723
n:   481 pts_time:16.449922 perf_counter_ms:26089322.056
n:   482 pts_time:16.483255 perf_counter_ms:26089355.389
n:   483 pts_time:16.516588 perf_counter_ms:26089388.722
n:   484 pts_time:16.549921 perf_counter_ms:26089422.055
n:   485 pts_time:16.583254 perf_counter_ms:26089455.389
n:   486 pts_time:16.616587 perf_counter_ms:26089488.722
n:   487 pts_time:16.649921 perf_counter_ms:26089522.055
